<svg xmlns="http://www.w3.org/2000/svg" xmlns:xlink="http://www.w3.org/1999/xlink" width="20" height="20" style=""><rect id="backgroundrect" width="100%" height="100%" x="0" y="0" fill="none" stroke="none"/>


<g class="currentLayer" style=""><title>Layer 1</title><g id="svg_1" class="selected" fill-opacity="1" fill="#000000">
    <path d="M8.83408,0.06420720000000002 C6.560960000000001,0.36270600000000003 4.58436,1.3079520000000002 3.003076,2.8578520000000003 C1.6384560000000001,4.19344 0.722372,5.80456 0.2624300000000001,7.679760000000001 C0.06476880000000002,8.48724 -0.003652152000000001,9.1072 0.00014902320000000004,10.01416 C0.003950200000000002,11.65972 0.32705000000000006,13.01448 1.0682800000000001,14.506960000000001 C1.8095080000000001,15.991800000000001 2.9802720000000003,17.31972 4.40952,18.284119999999998 C6.3177200000000004,19.569960000000002 8.739040000000001,20.18992 10.92472,19.948840000000004 C13.43352,19.66944 15.436720000000001,18.7242 17.124440000000003,17.0136 C19.405160000000002,14.698320000000002 20.36304,11.705680000000001 19.87648,8.3686 C19.595200000000002,6.4092400000000005 18.473840000000003,4.25084 17.018,2.8540240000000003 C15.642,1.5375680000000003 13.988480000000003,0.6420720000000001 12.179120000000001,0.23641800000000007 C11.1414,0.006803640000000001 9.807200000000002,-0.06590760000000002 8.83408,0.06420720000000002 zM11.232640000000002,1.327088 C13.97328,1.7289120000000002 16.3946,3.500772 17.649,6.0227200000000005 C18.029120000000002,6.78808 18.3028,7.65296 18.43964,8.50252 C18.53468,9.091880000000002 18.53468,10.672400000000001 18.43964,11.21964 C18.18496,12.666200000000002 17.668000000000003,13.89084 16.80136,15.06568 C16.65688,15.264680000000002 16.280600000000003,15.685640000000001 15.968879999999999,15.999440000000002 L15.968879999999999,15.999440000000002 L15.402520000000003,16.56584 L15.42532,16.86052 L15.448120000000001,17.15136 L15.337880000000002,16.7304 C15.20864,16.22908 15.0946,15.94972 14.92736,15.727760000000002 C14.85896,15.63588 14.801920000000003,15.54024 14.801920000000003,15.513440000000001 C14.80572,15.49048 14.90076,15.39864 15.018600000000001,15.31444 C15.231440000000001,15.16136 15.524160000000002,14.85136 15.6838,14.606440000000001 C15.7408,14.52608 15.820640000000001,14.46104 15.90048,14.43808 C16.09052,14.38448 16.3072,14.15872 16.3566,13.96352 C16.40984,13.776 16.3908,13.688 16.26156,13.492840000000001 L16.26156,13.492840000000001 L16.16656,13.35504 L16.25016,12.9762 C16.3338,12.60116 16.3338,12.59352 16.26916,12.00416 C16.23496,11.67888 16.20836,11.36508 16.20836,11.311480000000001 C16.20836,11.17756 15.915680000000002,10.5882 15.6838,10.262920000000001 C15.296080000000002,9.71184 15.15164,9.58172 14.58904,9.3062 C13.93524,8.980920000000001 13.6958,8.92732 13.034360000000001,8.954120000000001 C12.456600000000002,8.977079999999999 11.970040000000001,9.08804 11.52532,9.30236 C11.07676,9.51668 10.567400000000001,10.025640000000001 10.07708,10.7566 C9.9098,11.00152 9.8984,11.03212 9.8984,11.269400000000001 C9.8984,11.45308 9.8604,11.63296 9.761560000000001,11.94292 C9.594320000000002,12.4672 9.60192,12.589680000000001 9.8414,12.999160000000002 C9.936440000000001,13.159880000000001 10.01244,13.312960000000002 10.01244,13.33208 C10.01244,13.35504 9.96304,13.427760000000001 9.8984,13.49664 C9.69696,13.7148 9.70076,14.051560000000002 9.9098,14.27736 C10.02764,14.40364 10.31652,14.522280000000002 10.388760000000001,14.472520000000001 C10.407760000000001,14.46104 10.392560000000001,14.365360000000003 10.350760000000001,14.262039999999999 C10.23672,13.959719999999999 10.26712,13.948240000000002 10.407760000000001,14.242920000000002 C10.68524,14.832239999999999 11.06156,15.211120000000001 11.66596,15.5096 C12.12208,15.73156 12.5136,15.83108 13.0724,15.85784 C13.32328,15.86932 13.49432,15.89228 13.452520000000002,15.9076 C13.224440000000001,15.987960000000001 12.175320000000001,15.838720000000002 11.69256,15.65504 L11.69256,15.65504 L11.44168,15.559360000000002 L11.37708,15.64736 C11.236440000000002,15.83108 10.95892,16.43956 10.89052,16.71124 C10.85252,16.86816 10.799280000000001,17.1858 10.772680000000001,17.4154 C10.696640000000002,18.13104 10.666240000000002,18.196080000000002 10.586440000000001,17.77512 C10.453400000000002,17.078640000000004 9.560120000000001,13.77984 9.44988,13.580840000000002 C9.43468,13.55024 9.1952,13.469880000000002 8.917720000000001,13.401 C8.64024,13.328280000000001 8.33612,13.24408 8.24108,13.2058 C8.149880000000001,13.171360000000002 8.06244,13.15224 8.05104,13.163720000000001 C8.03964,13.175200000000002 8.10424,13.286160000000002 8.195480000000002,13.40864 C8.28672,13.531080000000001 8.41596,13.718600000000002 8.48436,13.821960000000002 C8.66304,14.10896 9.07736,15.00444 9.199,15.36036 C9.332040000000001,15.739240000000002 9.320640000000001,15.766 8.92152,16.1066 C8.76948,16.236720000000002 8.64404,16.37068 8.64404,16.40512 C8.64404,16.43572 8.81888,16.627080000000003 9.03176,16.82608 C9.400440000000001,17.17432 9.41568,17.197280000000003 9.385240000000001,17.30444 L9.385240000000001,17.30444 L9.351040000000001,17.41924 L9.335840000000001,17.3006 C9.32824,17.20876 9.237,17.105439999999998 8.929120000000001,16.81076 C8.70864,16.607920000000004 8.53,16.4166 8.53,16.38596 C8.53,16.3592 8.66684,16.2176 8.83028,16.07216 C9.2484,15.71244 9.2522,15.689480000000001 9.08116,15.24936 C8.79228,14.510800000000001 8.17268,13.37036 7.9446,13.156039999999999 C7.872400000000001,13.08716 7.84576,13.022120000000001 7.84576,12.9188 C7.84576,12.76188 7.88,12.723600000000001 8.07384,12.658560000000001 C8.27152,12.59352 8.46536,12.44424 8.5984,12.256720000000001 C8.70484,12.10748 8.750440000000001,12.080680000000001 9.04316,11.988840000000001 C9.2218,11.931440000000002 9.366240000000001,11.8702 9.366240000000001,11.85492 C9.366240000000001,11.83576 9.297839999999999,11.73628 9.2142,11.63676 C9.05076,11.43776 9.02032,11.2962 9.130560000000001,11.26176 C9.1648,11.25028 9.297839999999999,11.23112 9.42328,11.215800000000002 C9.548720000000001,11.204320000000001 9.66272,11.185200000000002 9.67796,11.173720000000001 C9.69316,11.166080000000001 9.65512,11.02064 9.594320000000002,10.85228 C9.52968,10.683880000000002 9.48028,10.52316 9.48028,10.5002 C9.48028,10.4734 9.579120000000001,10.42364 9.70076,10.38156 C9.970640000000001,10.293520000000001 10.43056,10.063920000000001 10.43056,10.018 C10.43056,9.99888 10.289920000000002,9.907 10.12268,9.81516 C9.791960000000001,9.63912 9.45748,9.37124 9.50688,9.325320000000001 C9.52208,9.31 9.658920000000002,9.256440000000001 9.803360000000001,9.21052 C10.168280000000001,9.08804 10.556000000000001,8.908199999999999 10.860120000000002,8.713 C11.00076,8.625 11.1148,8.54464 11.1072,8.5408 C11.09196,8.52932 10.06188,8.0854 9.96304,8.050960000000002 C9.9174,8.03184 9.906,8.008880000000001 9.925,7.97444 C9.940240000000001,7.9438 10.19112,7.69888 10.48,7.431000000000001 C10.765080000000001,7.15928 11.00076,6.92584 11.00076,6.91056 C11.00076,6.87992 10.765080000000001,6.83784 10.06948,6.738320000000001 C9.818600000000002,6.70008 9.59812,6.6617999999999995 9.58292,6.64648 C9.563920000000001,6.6312 9.738760000000001,6.2944 9.970640000000001,5.90024 C10.346960000000001,5.25348 10.41916,5.1157200000000005 10.381160000000001,5.1157200000000005 C10.373560000000001,5.1157200000000005 10.06184,5.22672 9.68936,5.36448 C9.145760000000001,5.56348 8.99752,5.6017600000000005 8.959520000000001,5.56348 C8.87588,5.47928 8.796080000000002,4.847840000000001 8.796080000000002,4.28144 L8.796080000000002,4.28144 L8.796080000000002,3.7342120000000003 L8.48816,3.898768 C8.12708,4.09396 7.6443200000000004,4.4728 7.42004,4.73688 C7.336400000000001,4.8402 7.249,4.9244 7.2338,4.9244 C7.21476,4.9244 7.07032,4.748360000000001 6.90688,4.5302 C6.6256,4.15516 6.15044,3.6232320000000002 6.09724,3.6232320000000002 C6.08204,3.6232320000000002 6.0516000000000005,3.791616 6.0288,3.9944400000000004 C5.9604,4.56848 5.75892,5.268800000000001 5.660080000000001,5.268800000000001 C5.6334800000000005,5.268800000000001 5.451040000000001,5.19228 5.257160000000001,5.1004000000000005 C4.94548,4.955 4.47032,4.80956 4.29548,4.80956 C4.24988,4.80956 4.27268,4.87844 4.38292,5.104240000000001 C4.550160000000001,5.44484 4.7022,5.976800000000001 4.6832,6.16048 L4.6832,6.16048 L4.6718,6.282920000000001 L4.32968,6.30972 C3.3337800000000004,6.38628 2.8662360000000002,6.432200000000001 2.8662360000000002,6.45132 C2.8662360000000002,6.46664 3.033488,6.64648 3.2387520000000003,6.85696 C3.6226680000000004,7.247320000000001 3.9039560000000004,7.664440000000001 3.884948,7.80988 C3.877348,7.863440000000001 3.683488,8.02416 3.284364,8.303560000000001 C2.961264,8.52932 2.6913800000000005,8.73216 2.6837800000000005,8.75128 C2.6761760000000003,8.77044 2.717988,8.7972 2.778808,8.812520000000001 C3.1855320000000003,8.90052 3.3603880000000004,8.95796 3.5048320000000004,9.04212 C3.7024920000000003,9.160760000000002 3.907756,9.3368 4.0104,9.482240000000001 L4.0104,9.482240000000001 L4.0864,9.589400000000001 L3.66068,10.01416 C3.303368,10.37388 3.242552,10.4466 3.288164,10.48872 C3.318576,10.51548 3.546644,10.603520000000001 3.797524,10.68004 C4.0484,10.7566 4.26888,10.836960000000001 4.28788,10.85608 C4.3068800000000005,10.87524 4.27648,11.070400000000001 4.20424,11.338280000000001 C4.13964,11.587040000000002 4.0978,11.80516 4.1092,11.824280000000002 C4.128240000000001,11.85872 4.755400000000001,11.82812 4.85804,11.78984 C4.95308,11.755400000000002 4.99108,11.84724 5.017720000000001,12.1496 C5.032920000000001,12.32564 5.055720000000001,12.47488 5.070920000000001,12.482520000000001 C5.10132,12.501640000000002 5.52704,12.31796 5.52704,12.28736 C5.52704,12.27588 5.477640000000001,12.195520000000002 5.4168400000000005,12.10748 C5.16216,11.73244 4.98728,11.26176 4.85044,10.56908 C4.75924,10.128960000000001 4.7174000000000005,9.708 4.76304,9.708 C4.77824,9.708 4.80484,9.830480000000001 4.8200400000000005,9.97972 C4.89608,10.833120000000001 5.2876,11.91616 5.644880000000001,12.27588 C5.7361200000000006,12.36772 5.933800000000001,12.49784 6.12384,12.585840000000001 L6.12384,12.585840000000001 L6.443160000000001,12.735080000000002 L6.43172,12.87668 L6.42032,13.018279999999999 L5.57648,13.301480000000002 L4.732600000000001,13.58468 L4.6566,13.81812 C4.6147599999999995,13.948240000000002 4.43992,14.5414 4.27268,15.142240000000001 C3.9609720000000004,16.23288 3.8659440000000007,16.50844 3.91156,16.18316 C3.930564,16.0224 3.92296,16.00712 3.7291,15.7928 C2.516528,14.47636 1.7676960000000002,12.934080000000002 1.4750040000000002,11.143120000000001 C1.364772,10.48872 1.376176,9.08804 1.4940120000000001,8.445120000000001 C1.824712,6.638840000000001 2.5545400000000003,5.1654800000000005 3.748108,3.906424 C5.69432,1.8590280000000001 8.41976,0.9176080000000001 11.232640000000002,1.327088 zM6.08964,13.695640000000001 C5.8159600000000005,14.265880000000003 5.3294,15.63208 5.371200000000001,15.7048 C5.3902,15.739240000000002 5.55368,15.89612 5.7361200000000006,16.05684 C5.92236,16.2176 6.078240000000001,16.36684 6.085840000000001,16.39364 C6.09724,16.4204 6.0402000000000005,16.5046 5.9604,16.584960000000002 C5.876760000000001,16.673 5.846360000000001,16.69212 5.884360000000001,16.634719999999998 C6.0326,16.40128 6.0440000000000005,16.431880000000003 5.660080000000001,16.076 C5.4016,15.834880000000002 5.299,15.716280000000001 5.299,15.651200000000001 C5.299,15.4522 6.0516000000000005,13.53492 6.1314400000000004,13.53492 C6.15044,13.53492 6.1314400000000004,13.607640000000002 6.08964,13.695640000000001 z" stroke="none" fill="#000000" fill-rule="nonzero" id="svg_2" fill-opacity="1"/>
</g></g></svg>